<mxfile host="app.diagrams.net" modified="2024-03-01T16:49:32.274Z" agent="Mozilla/5.0 (Windows NT 10.0; Win64; x64) AppleWebKit/537.36 (KHTML, like Gecko) Chrome/122.0.0.0 Safari/537.36" etag="PO8jhJNPscpJ1VIJbN6n" version="24.0.0" type="device">
  <diagram id="C5RBs43oDa-KdzZeNtuy" name="Page-1">
    <mxGraphModel dx="2074" dy="1098" grid="1" gridSize="10" guides="1" tooltips="1" connect="1" arrows="1" fold="1" page="1" pageScale="1" pageWidth="827" pageHeight="1169" math="0" shadow="0">
      <root>
        <mxCell id="WIyWlLk6GJQsqaUBKTNV-0" />
        <mxCell id="WIyWlLk6GJQsqaUBKTNV-1" parent="WIyWlLk6GJQsqaUBKTNV-0" />
        <mxCell id="jPozQBiyhScE0m7SvLDR-4" value="" style="edgeStyle=orthogonalEdgeStyle;rounded=0;orthogonalLoop=1;jettySize=auto;html=1;" edge="1" parent="WIyWlLk6GJQsqaUBKTNV-1" source="jPozQBiyhScE0m7SvLDR-0" target="jPozQBiyhScE0m7SvLDR-1">
          <mxGeometry relative="1" as="geometry" />
        </mxCell>
        <mxCell id="jPozQBiyhScE0m7SvLDR-0" value="Начало" style="ellipse;whiteSpace=wrap;html=1;" vertex="1" parent="WIyWlLk6GJQsqaUBKTNV-1">
          <mxGeometry x="50" y="10" width="120" height="80" as="geometry" />
        </mxCell>
        <mxCell id="jPozQBiyhScE0m7SvLDR-6" style="edgeStyle=orthogonalEdgeStyle;rounded=0;orthogonalLoop=1;jettySize=auto;html=1;entryX=0.5;entryY=0;entryDx=0;entryDy=0;" edge="1" parent="WIyWlLk6GJQsqaUBKTNV-1" source="jPozQBiyhScE0m7SvLDR-1" target="jPozQBiyhScE0m7SvLDR-5">
          <mxGeometry relative="1" as="geometry" />
        </mxCell>
        <mxCell id="jPozQBiyhScE0m7SvLDR-1" value="inputArray - массив вводимый пользователем" style="shape=parallelogram;perimeter=parallelogramPerimeter;whiteSpace=wrap;html=1;fixedSize=1;" vertex="1" parent="WIyWlLk6GJQsqaUBKTNV-1">
          <mxGeometry x="10" y="140" width="200" height="80" as="geometry" />
        </mxCell>
        <mxCell id="jPozQBiyhScE0m7SvLDR-9" style="edgeStyle=orthogonalEdgeStyle;rounded=0;orthogonalLoop=1;jettySize=auto;html=1;entryX=0.5;entryY=0;entryDx=0;entryDy=0;" edge="1" parent="WIyWlLk6GJQsqaUBKTNV-1" source="jPozQBiyhScE0m7SvLDR-5" target="jPozQBiyhScE0m7SvLDR-7">
          <mxGeometry relative="1" as="geometry" />
        </mxCell>
        <mxCell id="jPozQBiyhScE0m7SvLDR-5" value="FilterArray() - фильрация массива" style="rounded=0;whiteSpace=wrap;html=1;" vertex="1" parent="WIyWlLk6GJQsqaUBKTNV-1">
          <mxGeometry x="20" y="260" width="180" height="60" as="geometry" />
        </mxCell>
        <mxCell id="jPozQBiyhScE0m7SvLDR-10" style="edgeStyle=orthogonalEdgeStyle;rounded=0;orthogonalLoop=1;jettySize=auto;html=1;entryX=0.5;entryY=0;entryDx=0;entryDy=0;" edge="1" parent="WIyWlLk6GJQsqaUBKTNV-1" source="jPozQBiyhScE0m7SvLDR-7" target="jPozQBiyhScE0m7SvLDR-8">
          <mxGeometry relative="1" as="geometry" />
        </mxCell>
        <mxCell id="jPozQBiyhScE0m7SvLDR-7" value="Вывод NewArray" style="rounded=0;whiteSpace=wrap;html=1;" vertex="1" parent="WIyWlLk6GJQsqaUBKTNV-1">
          <mxGeometry x="50" y="360" width="120" height="60" as="geometry" />
        </mxCell>
        <mxCell id="jPozQBiyhScE0m7SvLDR-8" value="Конец" style="ellipse;whiteSpace=wrap;html=1;" vertex="1" parent="WIyWlLk6GJQsqaUBKTNV-1">
          <mxGeometry x="50" y="450" width="120" height="80" as="geometry" />
        </mxCell>
        <mxCell id="jPozQBiyhScE0m7SvLDR-13" style="edgeStyle=orthogonalEdgeStyle;rounded=0;orthogonalLoop=1;jettySize=auto;html=1;entryX=0.5;entryY=0;entryDx=0;entryDy=0;" edge="1" parent="WIyWlLk6GJQsqaUBKTNV-1" source="jPozQBiyhScE0m7SvLDR-11">
          <mxGeometry relative="1" as="geometry">
            <mxPoint x="580" y="130" as="targetPoint" />
          </mxGeometry>
        </mxCell>
        <mxCell id="jPozQBiyhScE0m7SvLDR-11" value="Начало FilterArray()" style="ellipse;whiteSpace=wrap;html=1;" vertex="1" parent="WIyWlLk6GJQsqaUBKTNV-1">
          <mxGeometry x="520" y="10" width="120" height="80" as="geometry" />
        </mxCell>
        <mxCell id="jPozQBiyhScE0m7SvLDR-19" style="edgeStyle=orthogonalEdgeStyle;rounded=0;orthogonalLoop=1;jettySize=auto;html=1;entryX=0.5;entryY=0;entryDx=0;entryDy=0;" edge="1" parent="WIyWlLk6GJQsqaUBKTNV-1" source="jPozQBiyhScE0m7SvLDR-14" target="jPozQBiyhScE0m7SvLDR-18">
          <mxGeometry relative="1" as="geometry" />
        </mxCell>
        <mxCell id="jPozQBiyhScE0m7SvLDR-28" value="Да" style="edgeLabel;html=1;align=center;verticalAlign=middle;resizable=0;points=[];" vertex="1" connectable="0" parent="jPozQBiyhScE0m7SvLDR-19">
          <mxGeometry x="-0.15" relative="1" as="geometry">
            <mxPoint as="offset" />
          </mxGeometry>
        </mxCell>
        <mxCell id="jPozQBiyhScE0m7SvLDR-29" style="edgeStyle=orthogonalEdgeStyle;rounded=0;orthogonalLoop=1;jettySize=auto;html=1;entryX=0;entryY=0.5;entryDx=0;entryDy=0;" edge="1" parent="WIyWlLk6GJQsqaUBKTNV-1" source="jPozQBiyhScE0m7SvLDR-14" target="jPozQBiyhScE0m7SvLDR-23">
          <mxGeometry relative="1" as="geometry">
            <Array as="points">
              <mxPoint x="460" y="170" />
              <mxPoint x="460" y="500" />
            </Array>
          </mxGeometry>
        </mxCell>
        <mxCell id="jPozQBiyhScE0m7SvLDR-30" value="Нет" style="edgeLabel;html=1;align=center;verticalAlign=middle;resizable=0;points=[];" vertex="1" connectable="0" parent="jPozQBiyhScE0m7SvLDR-29">
          <mxGeometry x="-0.0829" y="-1" relative="1" as="geometry">
            <mxPoint as="offset" />
          </mxGeometry>
        </mxCell>
        <mxCell id="jPozQBiyhScE0m7SvLDR-14" value="foreach (string item in inputArray)" style="shape=hexagon;perimeter=hexagonPerimeter2;whiteSpace=wrap;html=1;fixedSize=1;" vertex="1" parent="WIyWlLk6GJQsqaUBKTNV-1">
          <mxGeometry x="500" y="130" width="160" height="80" as="geometry" />
        </mxCell>
        <mxCell id="jPozQBiyhScE0m7SvLDR-21" style="edgeStyle=orthogonalEdgeStyle;rounded=0;orthogonalLoop=1;jettySize=auto;html=1;entryX=0.5;entryY=0;entryDx=0;entryDy=0;" edge="1" parent="WIyWlLk6GJQsqaUBKTNV-1" source="jPozQBiyhScE0m7SvLDR-18" target="jPozQBiyhScE0m7SvLDR-20">
          <mxGeometry relative="1" as="geometry" />
        </mxCell>
        <mxCell id="jPozQBiyhScE0m7SvLDR-18" value="if (item.Length &amp;lt;= 3)" style="rhombus;whiteSpace=wrap;html=1;" vertex="1" parent="WIyWlLk6GJQsqaUBKTNV-1">
          <mxGeometry x="510" y="250" width="140" height="80" as="geometry" />
        </mxCell>
        <mxCell id="jPozQBiyhScE0m7SvLDR-20" value="count++" style="rounded=0;whiteSpace=wrap;html=1;" vertex="1" parent="WIyWlLk6GJQsqaUBKTNV-1">
          <mxGeometry x="520" y="360" width="120" height="60" as="geometry" />
        </mxCell>
        <mxCell id="jPozQBiyhScE0m7SvLDR-22" style="edgeStyle=orthogonalEdgeStyle;rounded=0;orthogonalLoop=1;jettySize=auto;html=1;entryX=0.5;entryY=0;entryDx=0;entryDy=0;" edge="1" parent="WIyWlLk6GJQsqaUBKTNV-1" source="jPozQBiyhScE0m7SvLDR-23" target="jPozQBiyhScE0m7SvLDR-25">
          <mxGeometry relative="1" as="geometry" />
        </mxCell>
        <mxCell id="jPozQBiyhScE0m7SvLDR-31" value="Да" style="edgeLabel;html=1;align=center;verticalAlign=middle;resizable=0;points=[];" vertex="1" connectable="0" parent="jPozQBiyhScE0m7SvLDR-22">
          <mxGeometry x="0.2" relative="1" as="geometry">
            <mxPoint as="offset" />
          </mxGeometry>
        </mxCell>
        <mxCell id="jPozQBiyhScE0m7SvLDR-32" style="edgeStyle=orthogonalEdgeStyle;rounded=0;orthogonalLoop=1;jettySize=auto;html=1;entryX=1;entryY=0.75;entryDx=0;entryDy=0;" edge="1" parent="WIyWlLk6GJQsqaUBKTNV-1" source="jPozQBiyhScE0m7SvLDR-23" target="jPozQBiyhScE0m7SvLDR-26">
          <mxGeometry relative="1" as="geometry">
            <Array as="points">
              <mxPoint x="680" y="500" />
              <mxPoint x="680" y="735" />
            </Array>
          </mxGeometry>
        </mxCell>
        <mxCell id="jPozQBiyhScE0m7SvLDR-33" value="Нет" style="edgeLabel;html=1;align=center;verticalAlign=middle;resizable=0;points=[];" vertex="1" connectable="0" parent="jPozQBiyhScE0m7SvLDR-32">
          <mxGeometry x="0.1254" y="4" relative="1" as="geometry">
            <mxPoint as="offset" />
          </mxGeometry>
        </mxCell>
        <mxCell id="jPozQBiyhScE0m7SvLDR-23" value="foreach (string item in inputArray)" style="shape=hexagon;perimeter=hexagonPerimeter2;whiteSpace=wrap;html=1;fixedSize=1;" vertex="1" parent="WIyWlLk6GJQsqaUBKTNV-1">
          <mxGeometry x="500" y="460" width="160" height="80" as="geometry" />
        </mxCell>
        <mxCell id="jPozQBiyhScE0m7SvLDR-25" value="if (item.Length &amp;lt;= 3)" style="rhombus;whiteSpace=wrap;html=1;" vertex="1" parent="WIyWlLk6GJQsqaUBKTNV-1">
          <mxGeometry x="510" y="580" width="140" height="80" as="geometry" />
        </mxCell>
        <mxCell id="jPozQBiyhScE0m7SvLDR-35" style="edgeStyle=orthogonalEdgeStyle;rounded=0;orthogonalLoop=1;jettySize=auto;html=1;entryX=0.5;entryY=0;entryDx=0;entryDy=0;" edge="1" parent="WIyWlLk6GJQsqaUBKTNV-1" source="jPozQBiyhScE0m7SvLDR-26" target="jPozQBiyhScE0m7SvLDR-34">
          <mxGeometry relative="1" as="geometry" />
        </mxCell>
        <mxCell id="jPozQBiyhScE0m7SvLDR-26" value="newArray[index] = item; index++" style="rounded=0;whiteSpace=wrap;html=1;" vertex="1" parent="WIyWlLk6GJQsqaUBKTNV-1">
          <mxGeometry x="520" y="690" width="120" height="60" as="geometry" />
        </mxCell>
        <mxCell id="jPozQBiyhScE0m7SvLDR-34" value="return newArray" style="rounded=0;whiteSpace=wrap;html=1;" vertex="1" parent="WIyWlLk6GJQsqaUBKTNV-1">
          <mxGeometry x="520" y="780" width="120" height="60" as="geometry" />
        </mxCell>
      </root>
    </mxGraphModel>
  </diagram>
</mxfile>
